<?xml version="1.0" encoding="UTF-8" standalone="no"?>
<svg width="399px" height="321px" viewBox="0 0 399 321" version="1.1" xmlns="http://www.w3.org/2000/svg" xmlns:xlink="http://www.w3.org/1999/xlink">
    <!-- Generator: Sketch 41.2 (35397) - http://www.bohemiancoding.com/sketch -->
    <title>2016 Aviators logo</title>
    <desc>Created with Sketch.</desc>
    <defs>
        <polygon id="path-1" points="398.985782 226.29763 398.985782 1.52606635 0.000301311048 1.52606635 0.000301311048 226.29763 398.985782 226.29763"></polygon>
        <polygon id="path-3" points="0.773459716 64.3412322 174.733359 64.3412322 174.733359 0.226762859 0.773459716 0.226762859"></polygon>
    </defs>
    <g id="Page-1" stroke="none" stroke-width="1" fill="none" fill-rule="evenodd">
        <g id="2016-Aviators-logo">
            <g id="Group-3" transform="translate(0.000000, 36.018957)">
                <mask id="mask-2" fill="white">
                    <use xlink:href="#path-1"></use>
                </mask>
                <g id="Clip-2"></g>
                <path d="M201.732701,82.8758294 L205.598104,122.335545 C200.745024,121.435071 195.611374,121.509005 190.561137,122.593365 L201.732701,82.8758294 Z M397.215166,38.4227488 L396.549763,38.4227488 C385.617062,44.6691943 373.529858,48.7165877 361.156398,50.9156398 C343.069194,54.2009479 324.629384,54.1232227 306.324171,54.9042654 C290.240758,55.4369668 274.136493,55.9545024 258.092891,57.3251185 C249.929858,58.2691943 240.830332,60.0720379 235.370616,66.8094787 C234.532701,67.8521327 233.859716,68.9687204 233.309953,70.1308057 L224.485308,1.52606635 L148.798104,9.99810427 L167.32891,42.3469194 L201.334597,38.5440758 L201.366825,38.5402844 L198.716588,47.8350711 L180.572512,49.87109 L167.58673,91.9317536 C168.743128,84.9232227 169.495735,77.2492891 166.011374,70.7620853 C162.834123,64.9004739 156.394313,61.7971564 150.119431,60.4417062 C142.652133,58.7526066 134.951659,58.7582938 127.34218,58.4682464 C106.750711,57.6511848 86.1308057,57.9507109 65.5317536,57.3763033 C45.1241706,56.8436019 24.121327,54.436019 5.68720379,45.0521327 C4.1478673,44.3791469 2.45687204,43.042654 0.733649289,43.9867299 C-1.01990521,46.5914692 0.75450237,49.7800948 2.06824645,52.185782 C5.11090047,57.0274882 8.25781991,62.0379147 12.8966825,65.5241706 C15.4199052,67.4464455 18.2938389,68.8530806 21.2890995,69.8483412 C33.0938389,73.6720379 45.2227488,76.7601896 56.3545024,82.3545024 C63.8635071,86.028436 70.9327014,90.6919431 76.9383886,96.5345972 C83.4180095,102.695735 89.5734597,109.617062 97.907109,113.308057 C113.380095,120.327962 130.875829,120.343128 146.707109,126.240758 C149.929858,127.361137 152.803791,129.16019 155.433175,131.290995 L126.100474,226.29763 L162.604739,222.208531 L170.345024,194.906161 C170.379147,194.930806 170.411374,194.95545 170.443602,194.978199 C177.217062,199.406635 185.776303,201.304265 194.354502,200.166825 C200.756398,199.435071 207.127962,196.987678 212.754502,193.266351 L215.07109,216.339336 L251.592417,212.240758 L241.482464,133.647393 C242.959242,132.161137 244.521327,130.754502 246.072038,129.385782 C249.96019,125.912796 254.921327,124.081517 259.825592,122.557346 C274.090995,118.037915 289.461611,116.999052 303.025592,110.335545 C311.336493,106.324171 317.268246,99.0483412 323.744076,92.7298578 C332.176303,84.307109 342.745024,78.3488152 353.719431,73.8862559 C361.556398,70.8 369.575355,68.242654 377.545024,65.5507109 C381.338389,64.2729858 384.934597,62.3507109 387.903318,59.6454976 C391.878673,55.9545024 394.709005,51.236019 397.400948,46.5781991 C398.665403,44.1364929 400.3109,40.1763033 397.215166,38.4227488 L397.215166,38.4227488 Z" id="Fill-1" fill="#BD242C" mask="url(#mask-2)"></path>
            </g>
            <polyline id="Fill-4" fill="#BD242C" points="126.147867 315.677725 119.376303 316.436019 114.460664 271.143128 122.667299 270.223697 124.511848 297.74218 131.764929 269.205687 139.971564 268.28436 126.147867 315.677725"></polyline>
            <polyline id="Fill-5" fill="#BD242C" points="147.935545 313.241706 140.151659 314.11564 144.578199 267.772512 152.36019 266.898578 147.935545 313.241706"></polyline>
            <polyline id="Fill-6" fill="#BD242C" points="193.531754 308.14218 185.751659 309.008531 189.461611 270.153555 182.098578 270.980095 182.81327 263.495735 205.321327 260.974408 204.606635 268.464455 197.241706 269.287204 193.531754 308.14218"></polyline>
            <path d="M217.75545,266.983886 C216.754502,267.099526 215.886256,267.499526 215.09763,268.206635 C214.346919,268.883412 213.920379,269.869194 213.795261,271.21327 L211.527962,294.932701 C211.400948,296.280569 211.647393,297.190521 212.280569,297.708057 C212.945972,298.255924 213.757346,298.464455 214.756398,298.352607 C215.761137,298.24455 216.63128,297.848341 217.416114,297.137441 C218.16872,296.460664 218.589573,295.478673 218.720379,294.12891 L220.989573,270.407583 C221.112796,269.065403 220.868246,268.15545 220.233175,267.632227 C219.563981,267.090047 218.754502,266.877725 217.75545,266.983886 M214.009479,306.223697 C212.646445,306.37346 211.296682,306.280569 210,305.939336 C208.701422,305.601896 207.541232,305.004739 206.551659,304.16872 C205.554502,303.317536 204.784834,302.195261 204.261611,300.81327 C203.730806,299.435071 203.558294,297.749763 203.744076,295.802844 L206.009479,272.087204 C206.191469,270.183886 206.691943,268.432227 207.499526,266.883412 C208.29763,265.332701 209.306161,264.001896 210.490995,262.908057 C211.660664,261.833175 212.964929,260.959242 214.36019,260.312796 C217.129858,259.038863 219.924171,258.724171 222.51564,259.397156 C223.814218,259.740284 224.974408,260.339336 225.965877,261.179147 C226.964929,262.028436 227.736493,263.163981 228.25782,264.561137 C228.779147,265.958294 228.951659,267.637915 228.771564,269.539336 L226.506161,293.258768 C226.320379,295.207583 225.816114,296.964929 225.012322,298.492891 C224.214218,300.020853 223.211374,301.340284 222.02654,302.436019 C220.849289,303.518483 219.550711,304.388626 218.15545,305.029384 C216.769668,305.668246 215.370616,306.070142 214.009479,306.223697" id="Fill-7" fill="#BD242C"></path>
            <path d="M269.863507,299.971564 C268.238863,300.15545 266.733649,300.034123 265.376303,299.607583 C264.020853,299.192417 262.866351,298.525118 261.945024,297.630332 C261.021801,296.739336 260.316588,295.617062 259.852133,294.303318 C259.389573,292.983886 259.230332,291.499526 259.385782,289.891943 L259.681517,286.779147 L267.463507,285.909005 L267.2,288.640758 C267.101422,289.670142 267.309953,290.540284 267.829384,291.304265 C268.309005,292 269.218957,292.261611 270.618009,292.106161 C271.575355,292 272.327962,291.783886 272.854976,291.465403 C273.359242,291.158294 273.745972,290.78673 274.037915,290.312796 C274.345024,289.799052 274.574408,289.162085 274.718483,288.417062 C274.875829,287.592417 275.002844,286.682464 275.09763,285.696682 C275.203791,284.553555 275.254976,283.605687 275.243602,282.890995 C275.237915,282.252133 275.137441,281.744076 274.957346,281.395261 C274.775355,281.054028 274.51564,280.796209 274.159242,280.606635 C273.734597,280.381043 273.152607,280.144076 272.434123,279.9109 L268.066351,278.52891 C265.283412,277.654976 263.459716,276.250237 262.640758,274.337441 C261.848341,272.483412 261.588626,270.064455 261.867299,267.150711 C262.036019,265.397156 262.436019,263.687204 263.061611,262.066351 C263.698578,260.415166 264.55545,258.930806 265.618957,257.664455 C266.688152,256.392417 268.001896,255.306161 269.531754,254.449289 C271.059716,253.592417 272.811374,253.048341 274.737441,252.832227 C276.409479,252.64455 277.935545,252.790521 279.272038,253.254976 C280.597156,253.72891 281.723223,254.424645 282.621801,255.344076 C283.516588,256.25782 284.178199,257.340284 284.591469,258.559242 C285.002844,259.781991 285.143128,261.08436 285.016114,262.437915 L284.64455,266.307109 L276.864455,267.177251 L277.07109,265.010427 C277.196209,263.687204 277.000948,262.566825 276.481517,261.685308 C276.01327,260.885308 275.114692,260.570616 273.736493,260.729858 C272.997156,260.807583 272.382938,261.012322 271.905213,261.327014 C271.418009,261.660664 271.036967,262.041706 270.737441,262.492891 C270.430332,262.976303 270.189573,263.535545 270.02654,264.144076 C269.846445,264.8 269.721327,265.495735 269.651185,266.216114 C269.571564,267.076777 269.531754,267.802844 269.537441,268.365877 C269.539336,268.870142 269.62654,269.287204 269.789573,269.624645 C269.952607,269.946919 270.218009,270.227488 270.583886,270.456872 C270.981991,270.712796 271.567773,270.959242 272.318483,271.18673 L276.997156,272.597156 C278.411374,273.000948 279.57346,273.552607 280.42654,274.233175 C281.298578,274.927014 281.952607,275.789573 282.367773,276.805687 C282.779147,277.810427 283.008531,278.987678 283.055924,280.320379 C283.101422,281.605687 283.040758,283.101422 282.883412,284.763981 C282.693839,286.714692 282.327962,288.563033 281.783886,290.259716 C281.22654,292.009479 280.424645,293.57346 279.397156,294.906161 C278.362085,296.254028 277.033175,297.389573 275.448341,298.278673 C273.874882,299.163981 272,299.734597 269.863507,299.971564" id="Fill-8" fill="#BD242C"></path>
            <g id="Group-12" transform="translate(83.412322, 255.924171)">
                <mask id="mask-4" fill="white">
                    <use xlink:href="#path-3"></use>
                </mask>
                <g id="Clip-10"></g>
                <path d="M158.911848,20.7563981 L161.821801,20.428436 C162.836019,20.3127962 163.647393,20.0853081 164.246445,19.7535545 C164.811374,19.4388626 165.241706,19.0388626 165.571564,18.5364929 C165.920379,18.0056872 166.191469,17.3402844 166.377251,16.5554502 C166.572512,15.7327014 166.722275,14.7545024 166.830332,13.6473934 C166.934597,12.549763 166.96872,11.5791469 166.92891,10.7753555 C166.8891,10.0341232 166.722275,9.40853081 166.43981,8.93080569 C166.166825,8.47772512 165.766825,8.16872038 165.209479,7.9943128 C164.618009,7.80853081 163.776303,7.76872038 162.709005,7.89194313 L160.111848,8.18388626 L158.911848,20.7563981 Z M173.154502,45.163981 L164.908057,46.0834123 L160.807583,27.5734597 L158.23128,27.8654028 L156.403791,47.0350711 L148.619905,47.9090047 L153.046445,1.56777251 L163.98673,0.343127962 C171.912796,-0.547867299 175.482464,3.68151659 174.602844,12.9042654 C174.345024,15.6 173.6891,18.0037915 172.654028,20.0549763 C171.683412,21.9848341 170.16872,23.6682464 168.15545,25.0521327 L173.154502,45.163981 L173.154502,45.163981 Z" id="Fill-9" fill="#BD242C" mask="url(#mask-4)"></path>
                <path d="M13.5127962,46.0739336 L16.9952607,33.6909953 L18.157346,45.5507109 L13.5127962,46.0739336 Z M21.8767773,16.2445498 L5.6436019,18.0587678 L9.61706161,25.0009479 L16.9118483,24.185782 L16.9194313,24.1819905 L16.3488152,26.1781991 L12.456872,26.614218 L0.773459716,64.4549763 L8.6028436,63.5791469 L11.4009479,53.7175355 L18.9099526,52.8777251 L19.8578199,62.3165877 L27.6890995,61.442654 L21.8767773,16.2445498 L21.8767773,16.2445498 Z" id="Fill-11" fill="#BD242C" mask="url(#mask-4)"></path>
            </g>
            <path d="M165.943128,294.272986 L170.585782,293.753555 L169.421801,281.893839 L165.943128,294.272986 Z M180.121327,309.641706 L172.288152,310.51564 L171.34218,301.074882 L163.829384,301.920379 L161.033175,311.778199 L153.203791,312.652133 L167.869194,265.162085 L174.305213,264.449289 L174.37346,264.995261 L180.121327,309.641706 L180.121327,309.641706 Z" id="Fill-13" fill="#BD242C"></path>
            <path d="M347.408531,92.4 C362.655924,90.3943128 378.221801,88.2255924 392.331754,81.7668246 C386.845498,92.0511848 376.269194,98.5042654 365.260664,101.436967 C343.016114,107.505213 319.309953,104.113744 296.650237,107.137441 C289.076777,108.396209 281.298578,109.133649 274.164929,112.14218 C267.520379,114.798104 261.763033,119.488152 257.704265,125.359242 C251.088152,134.970616 250.250237,147.963981 244.350711,157.933649 C243.201896,159.96019 241.825592,161.846445 240.470142,163.730806 C242.527014,155.1109 241.249289,146.145972 238.934597,137.713744 C236.743128,128.798104 234.695735,119.181043 237.812322,110.216114 C239.672038,104.650237 244.782938,100.896682 250.172512,99.0843602 C260.229384,95.6303318 271.03128,96.1687204 281.516588,96.0966825 C303.520379,95.9203791 325.537441,94.9345972 347.408531,92.4" id="Fill-14" fill="#FFFFFF"></path>
            <path d="M163.321327,128.443602 C164.216114,122.64455 163.833175,116.547867 161.704265,111.046445 C159.495735,105.567773 154.164929,102.077725 148.663507,100.492891 C138.534597,97.4672986 127.833175,98.278673 117.399052,98.4265403 C92.5535545,98.7033175 67.6398104,98.242654 42.9516588,95.2511848 C30.6654028,93.6056872 18.2085308,91.6625592 6.77914692,86.650237 C9.507109,91.236019 13.171564,95.2436019 17.5336493,98.3488152 C35.2682464,110.981991 73.0009479,108.276777 90.335545,109.6891 C107.668246,111.103318 117.764929,111.311848 124.585782,113.556398 C132.820853,116.075829 140.117536,121.535545 144.752607,128.796209 C150.070142,137.021801 150.218009,147.700474 154.733649,156.316588 C156.301422,159.455924 158.318483,162.329858 160.462559,165.091943 C159.615166,161.188626 158.970616,157.205687 159.182938,153.196209 C159.615166,144.805687 162.058768,136.712796 163.321327,128.443602" id="Fill-15" fill="#FFFFFF"></path>
            <path d="M56.9440758,113.076777 C66.4890995,117.685308 72.2578199,122.329858 82.4834123,125.406635 C95.1734597,129.112796 108.437915,129.926066 121.418009,132.108057 C128.779147,133.421801 137.247393,134.737441 142.832227,140.176303 C141.596209,136.83981 140.077725,133.567773 137.825592,130.784834 C131.575355,122.849289 122.240758,118.451185 112.456872,116.872038 C104.145972,115.62654 95.7895735,115.757346 87.4236967,115.05782 C76.921327,114.477725 57.4540284,113.029384 56.9440758,113.076777" id="Fill-16" fill="#FFFFFF"></path>
            <path d="M295.541232,112.94218 C312.521327,111.675829 329.48436,111.364929 346.369668,109.145024 C334.635071,115.795261 322.837915,121.836967 309.412322,124.456872 C298.904265,126.963033 288.121327,127.950711 277.546919,130.113744 C270.591469,131.624645 262.388626,132.949763 257.156398,138.16872 C259.72891,129.770616 265.876777,123.488152 273.448341,119.112796 C280.092891,115.07109 287.87109,113.495735 295.541232,112.94218" id="Fill-17" fill="#FFFFFF"></path>
            <path d="M295.891943,131.524171 C303.522275,129.863507 311.099526,127.802844 318.868246,126.828436 C315.082464,129.675829 311.793365,133.143128 307.781991,135.696682 C301.126066,140.837915 293.48436,144.746919 285.325118,146.83981 C272.075829,149.920379 260.597156,148.595261 249.361137,157.004739 C253.459716,151.361137 254.269194,148.210427 257.825592,142.218009 C260.070142,138.468246 264.563033,137.16019 268.545972,136.193365 C277.588626,134.265403 286.847393,133.509005 295.891943,131.524171" id="Fill-18" fill="#FFFFFF"></path>
            <path d="M79.8767773,128.762085 C87.2701422,129.901422 94.549763,131.679621 101.835071,133.381991 C111.061611,135.522275 120.523223,136.341232 129.791469,138.263507 C134.041706,139.279621 138.913744,140.599052 141.268246,144.646445 C144.777251,150.678673 147.827488,153.761137 150.210427,159.565877 C143.499526,153.622749 129.954502,152.572512 118.041706,150.085308 C108.341232,148.288152 99.1488152,144.083412 91.3592417,138.053081 C87.2379147,135.325118 83.6985782,131.863507 79.8767773,128.762085" id="Fill-19" fill="#FFFFFF"></path>
            <path d="M171.537441,174.108057 C178.125118,176.299526 185.838863,176.394313 193.23981,174.363981 C199.141232,172.756398 204.957346,169.340284 209.753555,164.688152 C203.581043,162.195261 196.348815,161.759242 189.670142,163.507109 C183.082464,165.118483 176.699526,168.860664 171.537441,174.108057" id="Fill-20" fill="#FFFFFF"></path>
            <path d="M166.652133,180.181991 C160.293839,188.712796 157.766825,199.495735 160.053081,208.477725 C161.772512,215.704265 166.485308,221.946919 173.033175,225.717536 C179.865403,219.941232 188.206635,215.709953 197.205687,213.463507 C205.62654,211.306161 214.138389,211.163981 221.514692,213.069194 C227.581043,204.904265 230.127014,194.892891 228.326066,186.15545 C226.864455,178.345024 222.022749,171.611374 214.995261,167.575355 C204.356398,176.420853 190.777251,181.482464 177.636019,181.482464 C173.825592,181.482464 170.134597,181.04455 166.652133,180.181991" id="Fill-21" fill="#FFFFFF"></path>
            <path d="M176.674882,229.84455 C183.014218,232.458768 190.409479,232.997156 197.281517,231.311848 C204.580095,229.656872 211.552607,225.624645 217.080569,219.891943 C209.935545,217.48436 201.567773,217.416114 193.594313,219.713744 C187.58673,221.454028 181.62654,225.029384 176.674882,229.84455" id="Fill-22" fill="#FFFFFF"></path>
            <path d="M156.63128,14.8398104 C156.354502,15.2966825 155.988626,15.7952607 155.539336,16.3317536 C155.054028,16.8909953 154.688152,17.3800948 154.432227,17.8009479 C154.176303,18.2199052 154,18.5763033 153.909005,18.8739336 C153.787678,19.2758294 153.799052,19.5620853 153.948815,19.7383886 C154.094787,19.9165877 154.335545,19.9867299 154.667299,19.9507109 C155.105213,19.8995261 155.654976,19.6720379 156.305213,19.2625592 C156.961137,18.8530806 157.628436,18.2654028 158.3109,17.4919431 C159.012322,16.6957346 159.575355,15.9469194 160,15.236019 C160.42654,14.5232227 160.739336,13.8464455 160.938389,13.1924171 C161.273934,12.0985782 161.321327,11.1260664 161.072986,10.2843602 C160.82654,9.43886256 160.371564,8.7450237 159.708057,8.18957346 C159.050237,7.63412322 158.225592,7.23981043 157.236019,7.01232227 C156.250237,6.78104265 155.179147,6.72606635 154.034123,6.8549763 C152.225592,7.05781991 150.581991,7.46350711 149.095735,8.07203791 C147.609479,8.67677725 146.303318,9.40094787 145.181043,10.2369668 C144.056872,11.0729858 143.129858,11.9867299 142.394313,12.9611374 C141.666351,13.9450237 141.148815,14.9137441 140.858768,15.8748815 C140.540284,16.8966825 140.473934,17.7952607 140.650237,18.5516588 C140.82654,19.3061611 141.163981,19.9734597 141.666351,20.5440758 C142.16872,21.1165877 142.779147,21.6265403 143.509005,22.0663507 C144.235071,22.5061611 144.983886,22.92891 145.764929,23.3061611 C146.538389,23.6966825 147.296682,24.0815166 148.043602,24.4587678 C148.788626,24.8398104 149.429384,25.264455 149.96019,25.7251185 C150.492891,26.1933649 150.877725,26.7222749 151.105213,27.3118483 C151.336493,27.9052133 151.325118,28.6028436 151.076777,29.4123223 C150.805687,30.2938389 150.329858,31.0976303 149.649289,31.8312796 C148.963033,32.5668246 148.172512,33.2094787 147.272038,33.757346 C146.363981,34.3109005 145.393365,34.7601896 144.362085,35.107109 C143.332701,35.4559242 142.335545,35.6872038 141.374408,35.7914692 C140.559242,35.8862559 139.795261,35.8843602 139.093839,35.7819905 C138.392417,35.6890995 137.800948,35.4824645 137.334597,35.1677725 C136.864455,34.8587678 136.544076,34.4322275 136.371564,33.8862559 C136.195261,33.3459716 136.23128,32.6748815 136.475829,31.87109 C136.587678,31.5127962 136.712796,31.1734597 136.849289,30.856872 C136.993365,30.5440758 137.122275,30.2559242 137.251185,29.9962085 C137.380095,29.72891 137.501422,29.4919431 137.609479,29.2663507 C137.719431,29.050237 137.806635,28.8379147 137.867299,28.6407583 C137.992417,28.2236967 137.971564,27.9241706 137.797156,27.749763 C137.618957,27.5772512 137.357346,27.5109005 137.006635,27.5488152 C136.661611,27.5905213 136.263507,27.7270142 135.810427,27.9545024 C135.35545,28.1895735 134.904265,28.5080569 134.453081,28.9175355 C134,29.32891 133.579147,29.8199052 133.182938,30.4 C132.78673,30.9781991 132.477725,31.6341232 132.254028,32.3658768 C131.818009,33.7800948 131.747867,34.9819905 132.034123,35.9677725 C132.324171,36.9592417 132.862559,37.7459716 133.664455,38.335545 C134.462559,38.9270142 135.461611,39.3137441 136.654028,39.5184834 C137.846445,39.7232227 139.133649,39.7478673 140.513744,39.5962085 C141.493839,39.4843602 142.496682,39.2853081 143.520379,39.0028436 C144.547867,38.7127962 145.550711,38.3507109 146.538389,37.9090047 C147.526066,37.4691943 148.481517,36.9402844 149.404739,36.3317536 C150.326066,35.7251185 151.169668,35.042654 151.935545,34.2995261 C152.703318,33.5507109 153.378199,32.7279621 153.962085,31.8255924 C154.54218,30.92891 154.995261,29.9677725 155.313744,28.9383886 C155.654976,27.8085308 155.753555,26.8303318 155.598104,26 C155.446445,25.1658768 155.122275,24.4398104 154.636967,23.8236967 C154.149763,23.2056872 153.545024,22.6691943 152.82654,22.2123223 C152.109953,21.757346 151.363033,21.3440758 150.578199,20.9630332 C149.797156,20.5800948 149.03128,20.2104265 148.282464,19.8540284 C147.535545,19.4995261 146.8891,19.1014218 146.346919,18.6729858 C145.800948,18.242654 145.408531,17.757346 145.165877,17.2094787 C144.921327,16.6616114 144.91564,16.0189573 145.148815,15.2587678 C145.285308,14.8151659 145.539336,14.3488152 145.920379,13.8691943 C146.295735,13.3800948 146.78673,12.92891 147.391469,12.5023697 C147.994313,12.0777251 148.699526,11.7080569 149.503318,11.3895735 C150.3109,11.0729858 151.209479,10.8606635 152.199052,10.7507109 C153.09763,10.6521327 153.893839,10.6312796 154.597156,10.6938389 C155.30237,10.763981 155.878673,10.9118483 156.318483,11.1488152 C156.76019,11.3819905 157.07109,11.7080569 157.236019,12.1118483 C157.406635,12.5175355 157.400948,13.0085308 157.224645,13.5924171 C157.107109,13.971564 156.909953,14.3848341 156.63128,14.8398104" id="Fill-23" fill="#BD242C"></path>
            <g id="Group-27" transform="translate(155.450237, 0.000000)" fill="#BD242C">
                <path d="M10.6350711,26.7753555 C10.4777251,27.143128 10.2407583,27.6113744 9.92227488,28.1744076 C9.60947867,28.7412322 9.25118483,29.2947867 8.8492891,29.8350711 C8.4492891,30.3753555 8.02654028,30.8473934 7.58862559,31.2492891 C7.1450237,31.6549763 6.71658768,31.8729858 6.30900474,31.9203791 C6.0549763,31.9488152 5.86540284,31.9090047 5.74218009,31.7952607 C5.61516588,31.6853081 5.53554502,31.5241706 5.50331754,31.3232227 C5.46540284,31.1241706 5.46919431,30.8909953 5.51469194,30.6312796 C5.56018957,30.3677725 5.62464455,30.0890995 5.71184834,29.8066351 C5.86540284,29.3023697 6.09478673,28.7563981 6.39620853,28.1744076 C6.69952607,27.5905213 7.05402844,27.0009479 7.45781991,26.4094787 C7.85971564,25.8199052 8.29952607,25.2473934 8.77914692,24.7052133 C9.25876777,24.1478673 9.7478673,23.6587678 10.2521327,23.2132701 C10.7526066,22.7734597 11.256872,22.4075829 11.7554502,22.1270142 C12.2578199,21.8445498 12.7374408,21.6777251 13.1867299,21.6246445 L10.6350711,26.7753555 Z M31.9014218,27.4388626 C31.5753555,27.6834123 31.264455,27.9014218 30.9668246,28.1004739 C30.6691943,28.2862559 30.3943128,28.4454976 30.1478673,28.5744076 C29.9033175,28.7033175 29.6966825,28.7753555 29.5298578,28.7924171 C29.1658768,28.8341232 28.9706161,28.6331754 28.9402844,28.2009479 C28.9061611,27.7630332 29.0009479,27.1886256 29.2170616,26.4796209 C29.3478673,26.056872 29.5146919,25.5943128 29.7175355,25.0881517 C29.9203791,24.5781991 30.1383886,24.0625592 30.3753555,23.5412322 C30.6085308,23.0161137 30.8511848,22.5061611 31.0938389,22.0037915 C31.3383886,21.5052133 31.5601896,21.0388626 31.7630332,20.6199052 C31.9677725,20.2047393 32.1383886,19.8407583 32.2824645,19.5393365 C32.4246445,19.236019 32.5118483,19.0255924 32.549763,18.8947867 C32.8094787,18.0530806 32.8492891,17.4085308 32.67109,16.9668246 C32.4947867,16.521327 32.12891,16.335545 31.5753555,16.3924171 C31.0274882,16.456872 30.4909953,16.6255924 29.9658768,16.9061611 C29.4445498,17.1829384 28.9118483,17.6492891 28.371564,18.307109 C28.2483412,18.4492891 28.0739336,18.6767773 27.8293839,18.9819905 C27.5886256,19.2815166 27.3156398,19.6303318 27.014218,20.0208531 C26.7146919,20.4132701 26.3924171,20.8208531 26.0530806,21.2511848 C25.7156398,21.6834123 25.3971564,22.0890995 25.0976303,22.4758294 C24.7962085,22.8625592 24.5308057,23.2056872 24.3033175,23.4976303 C24.0720379,23.7952607 23.907109,24.0094787 23.8047393,24.1459716 L23.4748815,24.1819905 C23.4976303,24.1004739 23.5601896,23.943128 23.6663507,23.7042654 C23.7687204,23.4654028 23.8938389,23.1848341 24.0417062,22.8682464 C24.1895735,22.5478673 24.3450237,22.2028436 24.5156398,21.8236967 C24.6824645,21.442654 24.8436019,21.078673 25.0028436,20.7260664 C25.1582938,20.3734597 25.3004739,20.0511848 25.4218009,19.7516588 C25.543128,19.4597156 25.6303318,19.2265403 25.6834123,19.050237 C25.8729858,18.4246445 25.9127962,17.935545 25.7952607,17.5867299 C25.6834123,17.2341232 25.3251185,17.0919431 24.7317536,17.1582938 C24.1364929,17.2246445 23.6094787,17.4559242 23.1526066,17.850237 C22.6976303,18.242654 22.3279621,18.7090047 22.0454976,19.2454976 C21.6853081,19.9393365 21.2777251,20.763981 20.8227488,21.7270142 C20.3620853,22.6995261 19.9127962,23.6966825 19.4672986,24.7374408 C19.1014218,25.5905213 18.7601896,26.4246445 18.4322275,27.2549763 C18.1232227,27.5601896 17.8123223,27.8597156 17.5127962,28.1383886 C17.2018957,28.4265403 16.8796209,28.7090047 16.5478673,28.9838863 C16.2104265,29.2549763 15.8843602,29.5033175 15.5677725,29.72891 C15.2492891,29.9488152 14.9459716,30.1383886 14.6540284,30.2843602 C14.3620853,30.436019 14.1004739,30.5232227 13.8672986,30.5459716 C13.5620853,30.5800948 13.4085308,30.4511848 13.4066351,30.1592417 C13.4047393,29.8691943 13.4862559,29.4559242 13.6492891,28.9194313 C13.8445498,28.2900474 14.1004739,27.6189573 14.428436,26.9023697 C14.7545024,26.1895735 15.0900474,25.4729858 15.4388626,24.7582938 C15.785782,24.0417062 16.1156398,23.3383886 16.4341232,22.6616114 C16.7469194,21.9848341 16.9895735,21.3687204 17.1582938,20.8170616 C17.264455,20.4625592 17.321327,20.1838863 17.3232227,19.9867299 C17.3270142,19.7914692 17.2890995,19.6417062 17.2151659,19.5393365 C17.135545,19.4350711 17.0312796,19.3763033 16.9042654,19.3554502 C16.7658768,19.3402844 16.6199052,19.3421801 16.456872,19.3611374 C16.3336493,19.3725118 16.2104265,19.3914692 16.0796209,19.4066351 C15.9507109,19.4274882 15.8255924,19.4464455 15.7061611,19.4597156 C15.5601896,19.4729858 15.4218009,19.4805687 15.2909953,19.4805687 C15.1563981,19.4805687 15.0350711,19.4597156 14.9194313,19.4199052 C14.8056872,19.3725118 14.7241706,19.2966825 14.6729858,19.1810427 C14.6236967,19.0654028 14.5725118,18.9440758 14.5194313,18.8246445 C14.4663507,18.7052133 14.3829384,18.5990521 14.27109,18.5118483 C14.1592417,18.428436 13.9753555,18.3981043 13.7194313,18.4246445 C12.9592417,18.5118483 12.1630332,18.7601896 11.32891,19.1810427 C10.4890995,19.5981043 9.65118483,20.1308057 8.81327014,20.7753555 C7.98104265,21.4199052 7.16587678,22.157346 6.37535545,22.9838863 C5.58483412,23.8085308 4.85308057,24.678673 4.18009479,25.5848341 C3.507109,26.492891 2.91943128,27.4161137 2.40947867,28.3450237 C1.9014218,29.2663507 1.51848341,30.1611374 1.2549763,31.0180095 C1.01990521,31.7706161 0.930805687,32.4322275 0.978199052,33.0066351 C1.02369668,33.5810427 1.17725118,34.0549763 1.43886256,34.428436 C1.69478673,34.8 2.04170616,35.0729858 2.47393365,35.236019 C2.90616114,35.4028436 3.38957346,35.4559242 3.91658768,35.3971564 C4.41327014,35.3421801 4.93649289,35.2037915 5.48436019,34.9781991 C6.03601896,34.7488152 6.57630332,34.4739336 7.11848341,34.1554502 C7.65876777,33.8369668 8.17251185,33.4881517 8.65592417,33.1127962 C9.14312796,32.743128 9.56966825,32.3772512 9.93554502,32.028436 C10.0018957,32.9156398 10.2047393,33.571564 10.5421801,34.0037915 C10.8777251,34.436019 11.4123223,34.6085308 12.1402844,34.5270142 C12.7450237,34.4625592 13.3971564,34.2369668 14.1004739,33.8616114 C14.8018957,33.4881517 15.4843602,33.0464455 16.1478673,32.5402844 C16.4265403,32.3317536 16.6654028,32.1004739 16.92891,31.8824645 C16.8682464,32.2407583 16.8530806,32.5687204 16.8947867,32.8473934 C16.9402844,33.1658768 17.0691943,33.4123223 17.2834123,33.5791469 C17.4976303,33.7516588 17.8293839,33.8085308 18.2843602,33.757346 C18.6483412,33.7175355 18.9914692,33.5943128 19.3194313,33.3952607 C19.6473934,33.1905213 19.9943128,32.8454976 20.3563981,32.3488152 L27.4255924,22.9611374 L27.6853081,22.9327014 C27.2739336,23.8597156 26.9023697,24.7241706 26.5725118,25.5298578 C26.2407583,26.3336493 25.9677725,27.0767773 25.757346,27.7630332 C25.2246445,29.507109 25.0218009,30.8132701 25.1582938,31.6720379 C25.2909953,32.5327014 25.664455,32.9308057 26.2691943,32.864455 C26.8777251,32.7962085 27.4805687,32.6464455 28.0872038,32.4018957 C28.6957346,32.1649289 29.292891,31.878673 29.8843602,31.5450237 C30.4758294,31.2037915 31.0654028,30.8341232 31.6398104,30.4265403 C32.2180095,30.0208531 32.7867299,29.6170616 33.3478673,29.2132701 L34.371564,28.4701422 L35.2720379,24.6672986 C34.4208531,25.4104265 33.6265403,26.0834123 32.8758294,26.6843602 C32.5535545,26.9402844 32.2293839,27.1886256 31.9014218,27.4388626 L31.9014218,27.4388626 Z" id="Fill-24"></path>
                <path d="M65.2909953,15.7232227 C66.0511848,14.2085308 66.6540284,12.7298578 67.0957346,11.292891 C67.4180095,10.2407583 67.628436,9.22843602 67.7327014,8.24265403 C67.8369668,7.26445498 67.8028436,6.34881517 67.6246445,5.5014218 C67.450237,4.65592417 67.1109005,3.8957346 66.6180095,3.22085308 C66.121327,2.54407583 65.4331754,1.98862559 64.5459716,1.56018957 C63.664455,1.13175355 62.5668246,0.836018957 61.2606635,0.68056872 C59.9545024,0.532701422 58.4056872,0.557345972 56.6085308,0.758293839 C55.6398104,0.868246445 54.6691943,1.05023697 53.6966825,1.2985782 C52.7222749,1.5507109 51.7763033,1.88246445 50.8587678,2.28815166 C49.9412322,2.69194313 49.0654028,3.17725118 48.2274882,3.73838863 C47.3876777,4.29952607 46.6123223,4.95734597 45.8976303,5.7042654 C45.1867299,6.4492891 44.5535545,7.28341232 43.9981043,8.2028436 C43.4407583,9.12606635 42.9971564,10.149763 42.6521327,11.2682464 C42.2976303,12.4189573 42.3620853,12.9706161 42.8511848,12.9175355 C43.2037915,12.8739336 43.7440758,12.4777251 44.4796209,11.7194313 C45.2132701,10.9535545 46.1763033,9.88436019 47.3781991,8.50236967 C47.8350711,7.96018957 48.4151659,7.46729858 49.1184834,7.02748815 C49.8180095,6.59146919 50.5990521,6.21421801 51.4521327,5.88246445 C52.3014218,5.55829384 53.1962085,5.28720379 54.1459716,5.06919431 C55.0843602,4.85308057 56.0208531,4.69383886 56.9478673,4.59146919 C58.2180095,4.4492891 59.3194313,4.50805687 60.2654028,4.77156398 C61.2018957,5.04075829 61.9374408,5.48625592 62.4739336,6.13080569 C63.0066351,6.77345972 63.3232227,7.58862559 63.4199052,8.58957346 C63.5203791,9.58483412 63.3668246,10.7469194 62.957346,12.0720379 C62.6312796,13.143128 62.1592417,14.2729858 61.5526066,15.4616114 C60.9440758,16.6521327 60.2350711,17.8274882 59.4199052,18.9990521 C58.6104265,20.1706161 57.7118483,21.292891 56.743128,22.3772512 C55.7630332,23.4559242 54.7412322,24.4227488 53.6720379,25.2720379 C52.6028436,26.12891 51.5014218,26.836019 50.3677725,27.3971564 C49.2398104,27.9582938 48.121327,28.3033175 47.0199052,28.4246445 C46.6559242,28.464455 46.3791469,28.4587678 46.1819905,28.4132701 C45.9905213,28.3620853 45.87109,28.2578199 45.8199052,28.0947867 C45.7649289,27.9374408 45.7706161,27.7194313 45.8312796,27.4369668 C45.8881517,27.1526066 45.9848341,26.7962085 46.1156398,26.3753555 C46.2407583,25.9772512 46.3753555,25.563981 46.5345972,25.1374408 C46.6938389,24.7127962 46.8872038,24.2161137 47.1165877,23.6473934 C47.349763,23.0862559 47.6341232,22.4227488 47.971564,21.664455 C48.3014218,20.9023697 48.7052133,19.9867299 49.1829384,18.9194313 C49.6094787,17.9582938 50.0473934,16.9725118 50.5080569,15.9601896 C50.9668246,14.9554502 51.4559242,13.9545024 51.9810427,12.9763033 C52.5042654,11.9981043 53.0691943,11.0578199 53.6796209,10.1459716 C54.2881517,9.24549763 54.949763,8.4056872 55.6777251,7.6436019 C55.4199052,6.76777251 54.892891,6.37914692 54.0909953,6.46635071 C53.4521327,6.53838863 52.6540284,6.8985782 51.7023697,7.54123223 C50.3886256,9.0028436 49.2037915,10.6199052 48.1327014,12.3981043 C47.0672986,14.1800948 46.0985782,16.0303318 45.2322275,17.9582938 C44.3620853,19.8881517 43.571564,21.8464455 42.8739336,23.8464455 C42.1725118,25.8388626 41.5279621,27.7895735 40.9478673,29.6834123 C40.8872038,29.8748815 40.8454976,30.0341232 40.8151659,30.1611374 C40.7886256,30.2843602 40.7886256,30.3867299 40.8056872,30.4701422 C40.8208531,30.5535545 40.8625592,30.6161137 40.9232227,30.6691943 C40.9876777,30.7260664 41.0862559,30.763981 41.2132701,30.7962085 C41.5014218,30.9345972 41.8407583,31.07109 42.242654,31.1943128 C42.6388626,31.3118483 43.0748815,31.4123223 43.5412322,31.4938389 C44.0037915,31.5753555 44.4909953,31.6246445 45.0104265,31.6436019 C45.5260664,31.6625592 46.0436019,31.6436019 46.5611374,31.5848341 C48.0909953,31.4123223 49.6,30.9933649 51.0843602,30.3241706 C52.5687204,29.6587678 53.9962085,28.8132701 55.3781991,27.7876777 C56.7582938,26.763981 58.056872,25.5943128 59.2853081,24.2919431 C60.5080569,22.9838863 61.6265403,21.6075829 62.6369668,20.1611374 C63.6417062,18.7127962 64.52891,17.2341232 65.2909953,15.7232227" id="Fill-26"></path>
            </g>
            <path d="M228.238863,9.6492891 C228.8,9.58483412 229.309953,9.43886256 229.764929,9.22274882 C230.221801,8.99905213 230.63128,8.72985782 230.983886,8.41327014 C231.334597,8.10236967 231.628436,7.75545024 231.859716,7.37440758 C232.092891,6.99526066 232.269194,6.61232227 232.388626,6.22559242 C232.517536,5.79905213 232.55545,5.44265403 232.50237,5.1507109 C232.447393,4.85876777 232.320379,4.63507109 232.125118,4.47393365 C231.931754,4.31469194 231.675829,4.21421801 231.363033,4.1535545 C231.048341,4.10236967 230.699526,4.09668246 230.314692,4.13838863 C229.694787,4.21421801 229.150711,4.36966825 228.674882,4.61042654 C228.197156,4.86255924 227.793365,5.14123223 227.45782,5.46161137 C227.118483,5.77819905 226.841706,6.10995261 226.63128,6.45308057 C226.418957,6.79620853 226.274882,7.1014218 226.193365,7.36303318 C225.954502,8.15165877 225.988626,8.7563981 226.309005,9.17725118 C226.623697,9.6 227.270142,9.75734597 228.238863,9.6492891" id="Fill-28" fill="#BD242C"></path>
            <path d="M265.421801,12.9725118 C265.361137,13.414218 265.249289,13.8957346 265.090047,14.4208531 C264.885308,15.0862559 264.593365,15.7876777 264.214218,16.5327014 C263.827488,17.2720379 263.414218,17.9601896 262.966825,18.5895735 C262.521327,19.2208531 262.056872,19.749763 261.582938,20.1800948 C261.107109,20.6180095 260.682464,20.8511848 260.309005,20.892891 C259.882464,20.9402844 259.537441,20.8909953 259.2891,20.7374408 C259.038863,20.5838863 258.864455,20.3620853 258.777251,20.0663507 C258.678673,19.7763033 258.65782,19.4199052 258.703318,19.0047393 C258.741232,18.5933649 258.834123,18.1516588 258.980095,17.6701422 C259.196209,16.9744076 259.509005,16.2369668 259.914692,15.4691943 C260.320379,14.6919431 260.77346,13.9772512 261.273934,13.3194313 C261.778199,12.6672986 262.290047,12.1118483 262.822749,11.6663507 C263.351659,11.2208531 263.840758,10.9706161 264.293839,10.9232227 C264.636967,10.8853081 264.898578,10.9478673 265.080569,11.1184834 C265.262559,11.2796209 265.381991,11.5222749 265.433175,11.8388626 C265.488152,12.1535545 265.48436,12.5270142 265.421801,12.9725118 M248,18.9327014 C247.681517,19.4976303 247.323223,20.0511848 246.927014,20.5876777 C246.523223,21.1317536 246.10237,21.6018957 245.662559,22.0056872 C245.220853,22.4094787 244.792417,22.6331754 244.384834,22.6748815 C244.132701,22.7052133 243.941232,22.6635071 243.816114,22.5535545 C243.690995,22.4398104 243.611374,22.278673 243.575355,22.0777251 C243.543128,21.878673 243.548815,21.6492891 243.590521,21.3838863 C243.634123,21.1184834 243.698578,20.8417062 243.787678,20.5630332 C243.941232,20.056872 244.170616,19.5127962 244.472038,18.9270142 C244.77346,18.343128 245.127962,17.757346 245.531754,17.1658768 C245.933649,16.5763033 246.375355,16.0018957 246.856872,15.4540284 C247.330806,14.9023697 247.821801,14.4094787 248.326066,13.9658768 C248.830332,13.5260664 249.332701,13.1620853 249.83128,12.8777251 C250.331754,12.5971564 250.811374,12.4303318 251.262559,12.3829384 L248.707109,17.5279621 C248.553555,17.8976303 248.314692,18.3658768 248,18.9327014 M242.547867,31.7971564 C242.212322,32.3981043 241.842654,33.014218 241.429384,33.6511848 C241.027488,34.2843602 240.589573,34.9080569 240.123223,35.5260664 C239.658768,36.1383886 239.182938,36.6919431 238.69763,37.1886256 C238.208531,37.6853081 237.713744,38.0966825 237.217062,38.4227488 C236.718483,38.7469194 236.235071,38.9345972 235.772512,38.9895735 C235.330806,39.0369668 235.175355,38.8511848 235.30237,38.4265403 C235.385782,38.1668246 235.571564,37.8236967 235.855924,37.4104265 C236.147867,36.985782 236.50237,36.52891 236.934597,36.0379147 C237.361137,35.5469194 237.840758,35.0236967 238.375355,34.4815166 C238.911848,33.9336493 239.463507,33.3990521 240.032227,32.8796209 C240.604739,32.3582938 241.17346,31.8635071 241.745972,31.4066351 C242.318483,30.9459716 242.862559,30.5402844 243.383886,30.1971564 C243.158294,30.6635071 242.881517,31.1981043 242.547867,31.7971564 M232.062559,18.5819905 C232.193365,18.2293839 232.354502,17.8540284 232.54218,17.4691943 C232.727962,17.0862559 232.947867,16.6976303 233.2,16.3109005 C233.452133,15.9260664 233.734597,15.5753555 234.053081,15.2587678 C234.363981,14.9459716 234.716588,14.6748815 235.112796,14.4549763 C235.503318,14.2331754 235.935545,14.0947867 236.411374,14.0417062 C236.676777,14.0132701 236.849289,14.157346 236.927014,14.464455 C237.012322,14.7734597 236.970616,15.1886256 236.815166,15.7023697 C236.701422,16.064455 236.449289,16.4606635 236.053081,16.8796209 C235.656872,17.2966825 235.205687,17.6966825 234.705213,18.0720379 C234.202844,18.4473934 233.683412,18.7658768 233.146919,19.0312796 C232.616114,19.2966825 232.149763,19.4483412 231.753555,19.4957346 C231.829384,19.2417062 231.935545,18.9345972 232.062559,18.5819905 M268.544076,10.5687204 C268.371564,8.08909953 267.023697,7.38578199 265.325118,7.73080569 C264.10237,7.97535545 263.747867,8.03412322 262.627488,8.6028436 C261.503318,9.17535545 260.473934,9.9014218 259.556398,10.7848341 C258.63128,11.664455 257.818009,12.6672986 257.120379,13.8009479 C256.422749,14.9364929 255.880569,16.1270142 255.493839,17.3763033 C255.264455,18.1345972 255.124171,18.8663507 255.036967,19.5848341 C254.24455,20.3620853 253.537441,21.014218 252.927014,21.5412322 C252.305213,22.0739336 251.75545,22.5023697 251.285308,22.828436 C250.811374,23.1601896 250.377251,23.442654 249.988626,23.6720379 C250.832227,21.8464455 251.618957,20.1308057 252.329858,18.52891 C252.63128,17.8540284 252.938389,17.1696682 253.245498,16.464455 C253.546919,15.7649289 253.838863,15.0995261 254.100474,14.4815166 C254.365877,13.8540284 254.599052,13.2872038 254.796209,12.7829384 C254.995261,12.2729858 255.139336,11.8729858 255.236019,11.5696682 C255.338389,11.2189573 255.397156,10.9421801 255.397156,10.743128 C255.400948,10.5459716 255.363033,10.3943128 255.287204,10.2938389 C255.215166,10.1895735 255.109005,10.1308057 254.976303,10.1118483 C254.841706,10.0947867 254.695735,10.0985782 254.527014,10.1156398 C254.409479,10.12891 254.28436,10.1440758 254.153555,10.1649289 C254.024645,10.1800948 253.901422,10.2009479 253.778199,10.214218 C253.637915,10.2293839 253.499526,10.2350711 253.364929,10.2350711 C253.234123,10.2331754 253.1109,10.214218 252.995261,10.1725118 C252.881517,10.1308057 252.801896,10.0454976 252.748815,9.93744076 C252.69763,9.81800948 252.646445,9.6985782 252.593365,9.57725118 C252.540284,9.45402844 252.458768,9.35545024 252.346919,9.26824645 C252.235071,9.18104265 252.053081,9.1507109 251.797156,9.18104265 C251.036967,9.26445498 250.236967,9.51469194 249.402844,9.93744076 C248.563033,10.3545024 247.727014,10.8872038 246.892891,11.5279621 C246.056872,12.1781991 245.243602,12.9137441 244.451185,13.7383886 C243.658768,14.5630332 242.927014,15.4331754 242.252133,16.3412322 C241.581043,17.2473934 240.993365,18.1687204 240.487204,19.0976303 C240.29763,19.4388626 240.144076,19.7744076 239.988626,20.1061611 C239.963981,20.1270142 239.943128,20.1402844 239.918483,20.1592417 C239.148815,20.7127962 238.358294,21.236019 237.535545,21.7232227 C236.716588,22.2123223 235.89763,22.6350711 235.082464,22.9914692 C234.259716,23.3478673 233.524171,23.5620853 232.860664,23.6341232 C232.654028,23.6606635 232.462559,23.6606635 232.29763,23.6322275 C232.12891,23.6075829 231.977251,23.5450237 231.850237,23.450237 C231.719431,23.357346 231.603791,23.2151659 231.505213,23.0255924 C231.406635,22.8379147 231.327014,22.5990521 231.253081,22.3109005 C232.299526,21.9260664 233.306161,21.4445498 234.278673,20.864455 C235.249289,20.2843602 236.134597,19.6436019 236.921327,18.9459716 C237.706161,18.2559242 238.375355,17.535545 238.930806,16.7867299 C239.482464,16.0417062 239.867299,15.3137441 240.085308,14.6066351 C240.28436,13.9563981 240.356398,13.3819905 240.29763,12.8777251 C240.238863,12.3791469 240.070142,11.9677725 239.791469,11.6398104 C239.514692,11.3099526 239.145024,11.0729858 238.676777,10.9308057 C238.210427,10.7791469 237.664455,10.743128 237.050237,10.8113744 C236.290047,10.8985782 235.556398,11.1184834 234.845498,11.4635071 C234.136493,11.8161137 233.459716,12.2540284 232.815166,12.7848341 C232.166825,13.3137441 231.558294,13.9109005 230.995261,14.5763033 C230.42654,15.2398104 229.912796,15.9298578 229.455924,16.6407583 C229.000948,17.349763 228.599052,18.0739336 228.263507,18.8018957 C227.920379,19.5298578 227.653081,20.2123223 227.45782,20.8511848 C227.298578,21.3649289 227.192417,21.8578199 227.116588,22.3374408 C226.68436,22.6748815 226.252133,23.014218 225.814218,23.3440758 C225.194313,23.8009479 224.597156,24.2047393 224.022749,24.5402844 C223.450237,24.8796209 222.966825,25.0729858 222.570616,25.1165877 C222.23128,25.1545024 222.049289,25.0312796 222.030332,24.7412322 C222.01327,24.4511848 222.085308,24.0473934 222.242654,23.535545 C222.401896,23.0104265 222.638863,22.4151659 222.953555,21.7459716 C223.262559,21.0767773 223.607583,20.3848341 223.984834,19.6758294 C224.362085,18.9668246 224.748815,18.2578199 225.150711,17.543128 C225.548815,16.8341232 225.920379,16.1649289 226.27109,15.5507109 C226.619905,14.9308057 226.919431,14.3791469 227.177251,13.8938389 C227.429384,13.4066351 227.603791,13.0407583 227.675829,12.7886256 C227.76872,12.4909953 227.759242,12.2635071 227.647393,12.1042654 C227.535545,11.9450237 227.249289,11.8938389 226.78673,11.9450237 C226.532701,11.971564 226.240758,12.0379147 225.905213,12.1364929 C225.567773,12.2331754 225.237915,12.3620853 224.906161,12.5270142 C224.572512,12.6919431 224.259716,12.892891 223.963981,13.1298578 C223.664455,13.3668246 223.433175,13.636019 223.268246,13.9412322 C222.801896,14.8227488 222.291943,15.785782 221.717536,16.828436 C221.145024,17.8748815 220.591469,18.9194313 220.043602,19.9677725 C219.49763,21.0161137 219.000948,22.0265403 218.551659,22.9971564 C218.098578,23.9658768 217.761137,24.8113744 217.535545,25.5336493 C217.381991,26.0473934 217.2891,26.5080569 217.264455,26.9270142 C217.232227,27.3459716 217.298578,27.6853081 217.452133,27.9582938 C217.601896,28.2274882 217.846445,28.4246445 218.187678,28.5459716 C218.530806,28.6654028 218.983886,28.6957346 219.56019,28.6293839 C220.195261,28.5611374 220.913744,28.3620853 221.694787,28.0436019 C222.479621,27.7270142 223.270142,27.3459716 224.062559,26.9118483 C224.854976,26.4758294 225.617062,26.0113744 226.337441,25.5146919 C226.646445,25.3023697 226.92891,25.1014218 227.2,24.9004739 C227.275829,25.1696682 227.353555,25.4350711 227.476777,25.6701422 C227.795261,26.2654028 228.282464,26.7184834 228.94218,27.0180095 C229.6,27.3194313 230.445498,27.414218 231.482464,27.2966825 C232.145972,27.2227488 232.822749,27.07109 233.514692,26.8436019 C234.208531,26.6161137 234.890995,26.3450237 235.577251,26.0208531 C236.254028,25.6985782 236.917536,25.3383886 237.563981,24.9459716 C238.10237,24.6218009 238.600948,24.2919431 239.091943,23.963981 C239.156398,24.4436019 239.285308,24.8587678 239.5109,25.1829384 C239.76872,25.5563981 240.113744,25.8236967 240.551659,25.9905213 C240.981991,26.157346 241.461611,26.2123223 241.990521,26.1516588 C242.599052,26.0853081 243.272038,25.8464455 244.024645,25.4388626 C244.771564,25.0274882 245.529858,24.5156398 246.291943,23.9033175 L245.361137,25.5450237 C244.352607,26.3090047 243.35545,27.1052133 242.348815,27.9336493 C241.345972,28.7620853 240.369668,29.5981043 239.423697,30.4436019 C238.473934,31.2872038 237.582938,32.1270142 236.739336,32.9687204 C235.89763,33.8047393 235.145024,34.6047393 234.487204,35.3725118 C233.827488,36.1308057 233.270142,36.8511848 232.818957,37.5222749 C232.367773,38.1952607 232.062559,38.7924171 231.905213,39.3061611 C231.679621,40.0454976 231.617062,40.6274882 231.723223,41.0464455 C231.829384,41.4635071 232.032227,41.7744076 232.327962,41.971564 C232.621801,42.1687204 232.976303,42.2843602 233.385782,42.3165877 C233.799052,42.343128 234.191469,42.3393365 234.564929,42.2976303 C235.512796,42.1914692 236.430332,41.9260664 237.319431,41.5014218 C238.202844,41.0767773 239.05782,40.5308057 239.872986,39.8521327 C240.695735,39.1772512 241.486256,38.3867299 242.248341,37.4843602 C243.008531,36.585782 243.738389,35.6094787 244.437915,34.5535545 C245.139336,33.5014218 245.812322,32.3753555 246.451185,31.1886256 C247.09763,29.9943128 247.709953,28.7772512 248.293839,27.5298578 C249.584834,26.7222749 250.811374,25.9052133 251.97346,25.07109 C252.464455,24.7127962 252.96872,24.3469194 253.490047,23.9488152 C254.007583,23.5526066 254.519431,23.1488152 255.010427,22.7374408 C255.105213,22.6578199 255.18673,22.5800948 255.281517,22.4985782 C255.512796,23.0729858 255.863507,23.5469194 256.367773,23.8748815 C256.923223,24.2388626 257.690995,24.363981 258.65782,24.2521327 C259.32891,24.1781991 259.996209,23.9886256 260.669194,23.6834123 C261.334597,23.3763033 261.984834,22.9895735 262.612322,22.5232227 C263.23981,22.0530806 263.838863,21.5203791 264.4,20.9175355 C264.963033,20.3109005 265.476777,19.6758294 265.943128,19.0104265 C266.409479,18.335545 266.817062,17.6492891 267.17346,16.9535545 C267.527962,16.2483412 267.806635,15.563981 268.01327,14.8909953 C268.216114,14.214218 268.358294,13.5184834 268.420853,12.8018957 C268.485308,12.0796209 268.661611,11.1943128 268.544076,10.5687204" id="Fill-29" fill="#BD242C"></path>
        </g>
    </g>
</svg>