<?xml version="1.0" encoding="UTF-8" standalone="no"?>
<svg width="400px" height="189px" viewBox="0 0 400 189" version="1.1" xmlns="http://www.w3.org/2000/svg" xmlns:xlink="http://www.w3.org/1999/xlink">
    <!-- Generator: Sketch 41.2 (35397) - http://www.bohemiancoding.com/sketch -->
    <title>Philadelphia_Freedoms_logo_2015</title>
    <desc>Created with Sketch.</desc>
    <defs>
        <polygon id="path-1" points="399.440625 26.63125 399.440625 53.125 0.0375 53.125 0.0375 0.1375 399.440625 0.1375 399.440625 26.63125"></polygon>
    </defs>
    <g id="Page-1" stroke="none" stroke-width="1" fill="none" fill-rule="evenodd">
        <g id="Philadelphia_Freedoms_logo_2015">
            <g id="Group-3" transform="translate(0.000000, 135.625000)">
                <mask id="mask-2" fill="white">
                    <use xlink:href="#path-1"></use>
                </mask>
                <g id="Clip-2"></g>
                <path d="M399.440625,13.455 L342.146875,13.455 L339.431875,0.14375 L276.24375,0.1375 L275.94125,1.5025 C274.310625,0.685 272.045625,0.14375 268.905,0.14375 L252.270625,0.14375 L250.116875,9.875 L243.61625,9.875 L245.775625,0.1475 L206.069375,0.1375 L205.563125,2.42 C205.238125,2.19375 204.89375,1.98125 204.528125,1.7875 C202.45375,0.676875 199.890625,0.1375 196.694375,0.1375 L163.061875,0.1475 L155.366875,9.875 L147.57125,9.875 L149.725625,0.1475 L93.74875,0.1375 L93.411875,1.65875 C91.764375,0.755625 89.4225,0.14375 86.09,0.14375 L69.4575,0.14375 L66.51,13.455 L0.063125,13.455 L6.993125,21.1025 L0,52.651875 L27.075625,52.651875 L29.788125,40.44 L54.1225,40.44 L51.4125,52.651875 L75.6425,52.651875 L77.5575,44.02 L83.6575,52.651875 L108.294375,52.651875 L108.29375,52.65125 L216.39125,52.651875 C223.89375,52.651875 229.54625,51.535625 233.67125,49.239375 C235.61375,48.16375 237.249375,46.815 238.580625,45.206875 C239.785625,47.1375 241.566875,48.75 243.89375,49.98875 C247.859375,52.099375 253.384375,53.125 260.785625,53.125 C269.011875,53.125 275.3675,51.876875 280.215,49.309375 C280.873125,48.96 281.500625,48.58875 282.096875,48.19375 L281.105,52.67375 L286.243125,52.67375 L375.143125,52.651875 C379.265625,52.651875 390.216875,52.651875 392.810625,43.798125 C393.713125,40.72125 393.565,37.92875 392.369375,35.5 C390.796875,32.316875 387.633125,30.545625 386.441875,29.87875 C386.035625,29.65 385.614375,29.425625 385.178125,29.201875 L396.084375,29.201875 L399.440625,13.455" id="Fill-1" fill="#FFFFFF" mask="url(#mask-2)"></path>
            </g>
            <path d="M73.82375,117.595 C90.37625,113.765 105.145625,113.2475 105.766875,113.2275 L106.63125,113.203125 L106.840625,113.198125 L107.016875,113.084375 L107.748125,112.613125 C112.995625,109.250625 118.681875,106.15875 125.123125,103.164375 L141.830625,105.051875 C149.12125,105.994375 156.269375,106.454375 163.671875,106.454375 C171.785,106.454375 180.433125,105.8875 189.375625,104.770625 C216.21875,101.396875 241.805625,89.253125 255.55125,82.729375 C265.09125,78.2075 272.186875,75.780625 278.441875,74.903125 C280.1925,76.73125 282.0925,78.398125 284.118125,79.891875 C279.9775,80.34875 275.78625,81.32875 271.6275,82.820625 C263.39625,85.77125 255.8025,89.5275 248.459375,93.16 L248.294375,93.241875 C243.250625,95.731875 238.03375,98.3075 232.70875,100.565 C225.460625,103.635 216.599375,107.096875 205.831875,109.490625 C188.26875,113.40125 165.7825,113.514375 163.27625,113.514375 L163.115625,113.51375 L159.523125,113.4975 L162.809375,114.949375 C162.871875,114.976875 169.114375,117.7175 176.3325,119.359375 C188.14375,122.05 200.27375,122.405 204.940625,122.4325 C205.12625,122.43375 205.314375,122.434375 205.504375,122.434375 C212.569375,122.434375 222.64,121.599375 229.20875,119.73375 C235.50125,118.0725 241.034375,116.15375 246.110625,113.87375 C248.948125,112.595 256.255625,108.953125 263.611875,104.32125 C265.813125,103.045 267.871875,101.82 269.688125,100.73875 L269.720625,100.72 C274.16875,98.078125 278.010625,95.796875 282.439375,93.4975 C289.63,89.755625 295.579375,87.648125 295.6375,87.6275 L298.095,86.768125 C301.97875,87.880625 306.0525,88.474375 310.22625,88.474375 C316.171875,88.474375 321.98125,87.28 327.504375,84.928125 C335.573125,81.458125 342.06875,75.83125 346.629375,69.013125 C346.648125,68.985625 346.666875,68.958125 346.685625,68.930625 C346.95875,68.520625 347.22375,68.106875 347.4825,67.68875 C347.684375,67.36625 347.8825,67.04125 348.076875,66.71375 C348.1525,66.58375 348.2275,66.453125 348.301875,66.3225 C352.021875,59.87875 354.163125,52.414375 354.163125,44.454375 C354.163125,25.2275 341.725,8.86125 324.475,2.948125 C324.446875,2.93875 324.418125,2.929375 324.39,2.919375 C323.090625,2.476875 321.765,2.09375 320.414375,1.773125 C320.12375,1.70375 319.8325,1.635 319.54,1.57125 C319.264375,1.51125 318.988125,1.455 318.710625,1.400625 C318.20375,1.300625 317.695,1.209375 317.183125,1.126875 C317.0875,1.111875 316.9925,1.09375 316.895,1.07875 C314.689375,0.738125 312.44,0.559375 310.16125,0.559375 C304.21625,0.559375 298.40375,1.75375 292.89,4.105 C290.596875,5.090625 288.438125,6.25875 286.40625,7.569375 C282.27,7.064375 278.075625,6.80625 273.931875,6.80625 C270.111875,6.80625 266.39625,7.025625 262.89,7.458125 C252.04875,8.795 241.17875,12.424375 231.4525,17.95375 C221.018125,23.888125 213.97,31.53375 213.899375,31.610625 L211.84875,33.853125 L214.7075,32.821875 C214.87125,32.7625 231.21375,26.90125 244.970625,24.950625 C255.224375,23.490625 262.455625,23.18375 266.715625,23.18375 C267.689375,23.18375 268.62125,23.200625 269.485625,23.2325 C270.10125,23.255 270.91875,23.305625 271.721875,23.38375 C270.864375,24.950625 270.091875,26.5625 269.43,28.219375 C258.71125,28.57 237.390625,30.549375 211.181875,39.63625 L210.3575,39.921875 L210.16125,39.99 L210.028125,40.15 L209.46375,40.82625 C209.44625,40.845625 209.421875,40.875 209.39,40.9125 C208.1575,42.371875 204.925625,46.14 201.27875,49.9175 C194.895625,51.104375 188.664375,51.855 183.159375,52.51875 L183.081875,52.528125 C175.034375,53.505 166.71375,54.514375 157.6575,56.6625 C141.29375,60.53375 127.9425,66.604375 114.368125,76.345 L105.150625,82.965 C94.39125,87.853125 84.604375,94.046875 79.485,97.87125 L67.535625,106.794375 C58.059375,110.915 51.28625,115.331875 47.011875,118.29875 C39.45625,123.55 32.51,129.5525 32.440625,129.611875 L29.055,132.545 L33.21125,130.875 C33.43875,130.783125 56.178125,121.6825 73.82375,117.595" id="Fill-4" fill="#FFFFFF"></path>
            <polyline id="Fill-5" fill="#B01C33" points="111.464375 144.8125 103.893125 144.8125 104.986875 139.85625 97.035625 139.85625 94.11375 153.055625 102.065625 153.055625 103.219375 147.849375 110.8 147.849375 109.636875 153.055625 117.6025 153.055625 120.513125 139.85625 112.558125 139.85625 111.464375 144.8125"></polyline>
            <path d="M85.313125,144.246875 C85.196875,144.9525 84.92,145.448125 84.486875,145.714375 C84.044375,145.985625 83.295625,146.126875 82.224375,146.126875 L79.304375,146.126875 L80.06125,142.741875 L82.835625,142.741875 C83.664375,142.741875 84.2625,142.81375 84.63375,142.959375 C85.10375,143.1475 85.33875,143.471875 85.33875,143.948125 C85.33875,144.049375 85.333125,144.145625 85.313125,144.246875 Z M86.09,139.8625 L72.74375,139.8625 L69.8225,153.055625 L77.771875,153.055625 L78.663125,149.02 L84.428125,149.02 C87.493125,149.02 89.69125,148.6075 91.025625,147.78625 C92.190625,147.081875 92.87125,145.914375 93.0725,144.309375 C93.10625,144.098125 93.124375,143.895625 93.124375,143.694375 C93.124375,141.139375 90.776875,139.8625 86.09,139.8625 L86.09,139.8625 Z" id="Fill-6" fill="#B01C33"></path>
            <polyline id="Fill-7" fill="#B01C33" points="121.690625 153.055625 129.641875 153.055625 132.56375 139.85625 124.61375 139.85625 121.690625 153.055625"></polyline>
            <polyline id="Fill-8" fill="#B01C33" points="144.62625 139.86625 136.68125 139.86625 133.755 153.055625 151.245 153.055625 153.958125 149.59375 142.471875 149.59375 144.62625 139.86625"></polyline>
            <path d="M197.28625,146.46125 C196.83375,148.93 195.371875,150.1575 192.91,150.1575 L190.175625,150.1575 L191.810625,142.750625 L194.590625,142.750625 C195.525625,142.750625 196.2325,143.02875 196.711875,143.573125 C197.15,144.060625 197.365625,144.715625 197.365625,145.546875 C197.365625,145.83875 197.33875,146.145625 197.28625,146.46125 Z M202.596875,141.021875 C201.14375,140.244375 199.18,139.85625 196.694375,139.85625 L184.500625,139.85625 L181.57375,153.055625 L193.96875,153.055625 C197.353125,153.055625 199.930625,152.57 201.6675,151.594375 C203.5975,150.53 204.743125,148.76 205.099375,146.291875 C205.153125,145.9375 205.19125,145.59125 205.19125,145.2625 C205.19125,143.35125 204.32,141.93875 202.596875,141.021875 L202.596875,141.021875 Z" id="Fill-9" fill="#B01C33"></path>
            <polyline id="Fill-10" fill="#B01C33" points="240.67375 139.86625 232.72125 139.86625 229.788125 153.055625 249.2725 153.055625 250.0025 149.59375 238.514375 149.59375 240.67375 139.86625"></polyline>
            <path d="M268.1325,144.246875 C268.019375,144.9525 267.74,145.448125 267.30375,145.714375 C266.865,145.985625 266.108125,146.126875 265.039375,146.126875 L262.128125,146.126875 L262.87125,142.741875 L265.649375,142.741875 C266.47625,142.741875 267.07875,142.81375 267.445,142.959375 C267.9225,143.1475 268.1575,143.471875 268.1575,143.948125 C268.1575,144.049375 268.145,144.145625 268.1325,144.246875 Z M268.905,139.8625 L255.5575,139.8625 L252.6375,153.055625 L260.58625,153.055625 L261.48375,149.02 L267.245,149.02 C270.30125,149.02 272.505,148.6075 273.839375,147.78625 C274.999375,147.081875 275.68125,145.914375 275.89375,144.309375 C275.92625,144.098125 275.945,143.895625 275.945,143.694375 C275.945,141.139375 273.59,139.8625 268.905,139.8625 L268.905,139.8625 Z" id="Fill-11" fill="#B01C33"></path>
            <polyline id="Fill-12" fill="#B01C33" points="293.950625 144.8125 286.385 144.8125 287.475 139.85625 279.52875 139.85625 276.6 153.055625 284.555 153.055625 285.709375 147.849375 293.284375 147.849375 292.125 153.055625 300.0875 153.055625 303.00125 139.85625 295.048125 139.85625 293.950625 144.8125"></polyline>
            <polyline id="Fill-13" fill="#B01C33" points="307.105625 139.85625 304.184375 153.055625 312.13625 153.055625 315.055 139.85625 307.105625 139.85625"></polyline>
            <path d="M325.9925,146.99125 L328.84625,143.374375 L329.586875,146.99125 L325.9925,146.99125 Z M336.08875,139.8625 L325.1175,139.8625 L325.11375,139.86625 L325.075,139.86625 L314.654375,153.055625 L321.19875,153.055625 L323.70375,149.884375 L330.171875,149.884375 L330.820625,153.055625 L338.779375,153.055625 L336.08875,139.8625 L336.08875,139.8625 Z" id="Fill-14" fill="#B01C33"></path>
            <path d="M165.95125,146.99125 L168.785,143.3975 L169.52,146.99125 L165.95125,146.99125 Z M165.0575,139.8625 L165.051875,139.86625 L165.043125,139.86625 L154.61,153.055625 L161.155,153.055625 L163.660625,149.884375 L170.114375,149.884375 L170.75875,153.055625 L178.711875,153.055625 L176.025625,139.8625 L165.0575,139.8625 L165.0575,139.8625 Z" id="Fill-15" fill="#B01C33"></path>
            <polyline id="Fill-16" fill="#B01C33" points="206.430625 153.055625 226.529375 153.055625 227.301875 149.59375 215.158125 149.59375 215.539375 147.844375 226.57625 147.844375 227.245 144.836875 216.205 144.836875 216.595 143.054375 228.7425 143.054375 229.441875 139.85625 209.355625 139.85625 206.430625 153.055625"></polyline>
            <path d="M234.235,104.17375 C220.594375,109.950625 204.081875,116.201875 178.465,116.09 C177.43,116.09 176.381875,116.073125 175.31875,116.0475 C175.31875,116.0475 181.53875,117.495 190.75,118.245 C193.925,118.49875 198.196875,118.705 202.383125,118.721875 C204.6125,118.73625 206.8175,118.690625 208.8175,118.56875 C216.77,118.1125 223.303125,117.09 228.998125,115.591875 C233.961875,114.2875 238.5275,112.833125 244.2375,110.266875 C248.425625,108.385 255.2075,104.98125 261.575,100.979375 C268.67375,96.855625 274.09875,93.4175 280.63375,90.021875 C288.23,86.07125 294.343125,83.93375 294.343125,83.93375 C294.343125,83.93375 292.531875,83.53 289.369375,83.515625 C285.56875,83.49875 279.83375,84.03875 272.94625,86.51 C259.25125,91.423125 247.468125,98.564375 234.235,104.17375" id="Fill-17" fill="#B01C33"></path>
            <path d="M105.644375,109.333125 C111.88,105.334375 118.256875,102.015 124.323125,99.2325 C113.18625,98.47625 99.01125,100.850625 86.425,104.295625 C69.695625,108.88375 55.3175,116.70375 43.24,124.376875 C43.24,124.376875 55.195,118.421875 72.899375,113.809375 C87.575625,110.18375 101.24125,109.469375 105.644375,109.333125" id="Fill-18" fill="#B01C33"></path>
            <path d="M153.700625,86.828125 C153.5,86.91875 153.306875,87.009375 153.10125,87.110625 C149.511875,88.763125 141.771875,91.835 135.574375,94.386875 C130.125,96.6325 125.92875,98.48375 125.92875,98.48375 C125.92875,98.48375 125.946875,98.4875 125.956875,98.4875 L124.433125,99.160625 L142.32125,101.178125 C153.82125,102.67125 168.59875,103.43125 188.891875,100.90625 C214.43375,97.6925 239.198125,86.1725 253.88,79.21 C264.934375,73.96625 272.71375,71.441875 280.175,70.78 C280.17125,70.775625 280.168125,70.770625 280.16375,70.76625 C279.491875,69.998125 278.8475,69.201875 278.23375,68.379375 C278.230625,68.375625 278.228125,68.3725 278.225625,68.36875 C277.9275,67.96875 277.635625,67.563125 277.351875,67.150625 C277.33625,67.129375 277.32125,67.1075 277.305625,67.085625 C277.04,66.698125 276.780625,66.305 276.5275,65.906875 C276.496875,65.85875 276.465,65.810625 276.434375,65.761875 C276.2025,65.39375 275.9775,65.02125 275.7575,64.64375 C275.710625,64.565 275.663125,64.486875 275.616875,64.4075 C275.415625,64.05875 275.22125,63.70375 275.030625,63.3475 C274.97375,63.24125 274.91375,63.136875 274.8575,63.03 C274.6775,62.686875 274.505625,62.339375 274.335,61.989375 C274.27625,61.87 274.214375,61.7525 274.156875,61.6325 C273.935625,61.166875 273.72125,60.695625 273.51625,60.21875 C273.29625,59.69875 273.090625,59.175625 272.894375,58.649375 C272.830625,58.48125 272.765,58.313125 272.70375,58.145 C269.74625,58.800625 266.5725,59.64375 263.609375,60.714375 C253.890625,63.988125 235.061875,72.903125 220.04,77.351875 C208.280625,80.834375 188.17875,86.43375 161.575625,83.25125 C167.006875,80.48625 171.95625,77.67625 176.413125,74.886875 C175.948125,74.96375 175.470625,75.04 174.9875,75.10625 C158.93375,77.2825 138.623125,76.619375 122.51375,80.785625 C106.729375,84.871875 89.54875,95.22375 81.818125,100.9975 C81.818125,100.9975 89.46,96.561875 104.588125,92.434375 C116.931875,89.07 135.061875,86.409375 153.700625,86.828125" id="Fill-19" fill="#B01C33"></path>
            <path d="M152.955,68.516875 C164.930625,66.829375 178.6675,66.205625 190.6025,64.703125 C190.0475,65.128125 187.159375,67.335 187.159375,67.335 L187.17625,67.328125 L186.688125,67.680625 C213.7175,66.431875 234.03875,53.274375 258.254375,47.1425 C266.45,45.065 270.138125,44.629375 270.138125,44.629375 L270.325625,44.604375 C270.326875,40.333125 271.024375,36.11875 272.33875,32.114375 C272.34625,32.093125 272.351875,32.07125 272.35875,32.05 C258.505,32.206875 237.434375,34.665 212.46125,43.31875 C212.46125,43.31875 208.125625,48.52375 203.213125,53.52125 C187.721875,56.530625 174.39125,56.6975 158.555625,60.45625 C141.691875,64.448125 128.865,70.745 116.640625,79.516875 C116.640625,79.516875 124.0675,75.319375 136.793125,71.71375 C140.6925,70.611875 148.050625,69.196875 152.955,68.516875" id="Fill-20" fill="#B01C33"></path>
            <path d="M278.47875,20.09125 L278.6825,20.11625 C280.850625,17.299375 283.410625,14.755625 286.32375,12.571875 C286.384375,12.52625 286.44625,12.4825 286.5075,12.436875 C286.8625,12.17375 287.2175,11.910625 287.5825,11.65875 C287.588125,11.655 287.5925,11.650625 287.598125,11.646875 C281.9975,10.865625 273.03375,10.1275 263.2725,11.323125 C253.39875,12.5325 244.506875,15.09875 234.39875,20.175 C227.82875,23.473125 221.845,27.76125 221.845,27.76125 C221.845,27.76125 230.575,23.9225 243.81375,21.353125 C257.21125,18.745625 269.87125,18.88125 278.47875,20.09125" id="Fill-21" fill="#B01C33"></path>
            <path d="M346.920625,43.4825 C346.91625,43.325625 346.91125,43.175625 346.901875,43.01875 C346.88625,42.558125 346.85875,42.101875 346.826875,41.64125 C346.821875,41.57125 346.8125,41.498125 346.809375,41.421875 C346.7625,40.870625 346.703125,40.323125 346.633125,39.779375 C346.621875,39.699375 346.610625,39.62625 346.60125,39.54625 C346.535625,39.075 346.46375,38.608125 346.38125,38.14125 C346.36375,38.043125 346.3475,37.93875 346.32875,37.834375 C346.129375,36.760625 345.881875,35.700625 345.595625,34.658125 C345.571875,34.574375 345.5475,34.486875 345.519375,34.403125 C345.383125,33.925625 345.24125,33.455 345.084375,32.99125 C345.068125,32.9425 345.055625,32.896875 345.04125,32.851875 C344.31625,30.69375 343.39625,28.62625 342.303125,26.66375 C342.29125,26.63875 342.27875,26.6175 342.27,26.596875 C342.008125,26.140625 341.739375,25.68 341.45875,25.234375 C341.435,25.191875 341.41125,25.154375 341.388125,25.111875 C341.119375,24.679375 340.840625,24.2575 340.555,23.835625 C340.521875,23.79 340.489375,23.741875 340.453125,23.693125 C340.17125,23.28125 339.87875,22.880625 339.57625,22.479375 C339.54375,22.430625 339.505,22.381875 339.46875,22.333125 C339.1625,21.925 338.843125,21.524375 338.51875,21.1375 C338.48875,21.09875 338.4625,21.060625 338.43125,21.025625 C338.075625,20.596875 337.71125,20.18125 337.338125,19.766875 C336.848125,20.51 335.98375,21.171875 334.771875,21.6425 C329.668125,23.63 322.775,23.45625 318.684375,23.31625 L318.255,23.305625 C312.025,23.114375 304.780625,23.125 297.714375,25.7075 C294.035625,27.01875 289.843125,29.84375 287.040625,34.044375 C284.041875,38.53125 282.610625,44.57375 284.3925,51.40875 C285.84625,56.973125 288.42125,61.104375 291.505,64.0575 C295.8525,67.544375 300.936875,68.9775 305.27625,68.9775 L305.33875,68.9775 C316.6125,68.949375 325.185,62.645625 332.050625,57.62875 C332.050625,57.62875 336.1825,54.38625 339.105625,52.549375 C340.809375,51.4675 342.824375,50.415 344.675625,50.07 C345.286875,49.930625 345.93625,49.913125 346.52375,49.961875 C346.640625,49.214375 346.725625,48.460625 346.79125,47.704375 C346.800625,47.6 346.810625,47.495625 346.821875,47.390625 C346.845625,47.06625 346.866875,46.745 346.88,46.425 C346.896875,46.180625 346.901875,45.933125 346.91125,45.693125 C346.920625,45.403125 346.931875,45.1175 346.935625,44.831875 C346.93875,44.38125 346.935625,43.925625 346.920625,43.4825" id="Fill-22" fill="#D0DC53"></path>
            <path d="M284.5875,28.70625 C287.751875,24.6375 291.385625,22.828125 294.830625,21.339375 C302.0725,18.20875 310.428125,18.09 317.435625,18.3125 L317.850625,18.3275 C321.633125,18.445625 327.596875,18.91625 332.185,17.371875 C332.519375,17.23625 332.97,16.988125 333.100625,16.625625 C333.290625,16.19625 333.100625,15.834375 332.7975,15.5625 C332.42875,15.275 332.053125,14.9975 331.674375,14.724375 C331.561875,14.64375 331.448125,14.565625 331.335,14.48625 C331.06125,14.294375 330.785625,14.105625 330.5075,13.920625 C330.37875,13.835625 330.25,13.75125 330.12125,13.66875 C329.8375,13.48625 329.55125,13.3075 329.263125,13.1325 C329.149375,13.06375 329.03625,12.993125 328.920625,12.924375 C328.523125,12.68875 328.12125,12.459375 327.715,12.239375 C327.67,12.214375 327.625,12.1925 327.580625,12.16875 C327.221875,11.97625 326.86,11.79 326.495,11.609375 C326.34125,11.53375 326.186875,11.460625 326.033125,11.3875 C325.773125,11.263125 325.5125,11.141875 325.25,11.02375 C325.07125,10.943125 324.8925,10.86375 324.7125,10.78625 C324.469375,10.681875 324.225,10.581875 323.98,10.4825 C323.790625,10.40625 323.603125,10.3275 323.4125,10.254375 C323.15,10.153125 322.885,10.0575 322.62,9.9625 C322.250625,9.829375 321.87875,9.7025 321.504375,9.58125 C321.326875,9.523125 321.149375,9.46375 320.970625,9.40875 C320.7025,9.32625 320.4325,9.24875 320.1625,9.1725 C320.010625,9.129375 319.8575,9.086875 319.704375,9.045625 C319.415,8.968125 319.125625,8.8925 318.834375,8.821875 C318.723125,8.795 318.611875,8.77 318.50125,8.744375 C317.3975,8.486875 316.28125,8.2775 315.15375,8.1225 C314.956875,8.090625 314.758125,8.063125 314.555625,8.0425 C314.555,8.0425 314.554375,8.041875 314.553125,8.041875 C314.244375,8.004375 313.93375,7.973125 313.623125,7.94375 C313.40875,7.92375 313.194375,7.905 312.980625,7.886875 C312.72125,7.86625 312.4625,7.8525 312.203125,7.8375 C311.778125,7.8175 311.34625,7.7975 310.91375,7.790625 C310.8825,7.789375 310.849375,7.78875 310.818125,7.7875 C310.723125,7.785 310.62875,7.7825 310.53375,7.78125 C310.13625,7.779375 309.74,7.78125 309.346875,7.794375 C309.31,7.795 309.273125,7.795625 309.235625,7.79625 C309.07625,7.800625 308.9175,7.8025 308.758125,7.80875 C308.4425,7.8225 308.130625,7.839375 307.8175,7.858125 C307.543125,7.875625 307.269375,7.895625 306.995,7.919375 C306.6475,7.95 306.300625,7.98875 305.96,8.0275 C305.84625,8.038125 305.735625,8.05375 305.623125,8.068125 C305.483125,8.085625 305.343125,8.100625 305.203125,8.120625 C304.890625,8.165 304.579375,8.21 304.27125,8.26125 C304.194375,8.273125 304.118125,8.2875 304.04125,8.300625 C303.800625,8.34125 303.56,8.381875 303.320625,8.4275 C303.07875,8.474375 302.835,8.5225 302.59625,8.57125 C302.54125,8.583125 302.486875,8.596875 302.431875,8.60875 C302.19625,8.66125 301.959375,8.71375 301.72375,8.77375 C301.443125,8.836875 301.161875,8.9 300.885625,8.98 C300.56125,9.06 300.241875,9.158125 299.918125,9.248125 C299.676875,9.318125 299.43,9.384375 299.18875,9.460625 C299.166875,9.468125 299.14625,9.474375 299.125,9.480625 C298.868125,9.561875 298.613125,9.65375 298.3575,9.740625 C298.356875,9.74125 298.353125,9.743125 298.355625,9.743125 C290.861875,14.725625 285.628125,22.18 283.30625,30.505625 C283.34625,30.445 283.3875,30.3875 283.4275,30.3275 C283.58375,30.093125 283.739375,29.85875 283.901875,29.631875 C284.125625,29.315625 284.35375,29.00625 284.5875,28.70625" id="Fill-23" fill="#D0DC53"></path>
            <path d="M343.818125,55.996875 C343.071875,56.35625 342.204375,56.83375 341.195625,57.46125 C340.75875,57.73625 339.046875,58.991875 337.91375,59.825 L336.321875,60.98625 C329.09625,66.271875 319.200625,73.50625 306.87125,73.534375 L306.794375,73.534375 C305.225625,73.534375 303.564375,73.37 301.871875,73.02125 C310.456875,77.43875 320.715,78.456875 330.408125,75.19 C330.41125,75.188125 330.413125,75.1875 330.41625,75.185625 C337.5425,70.48625 342.630625,63.565 345.1425,55.7675 C345.13,55.75875 345.119375,55.749375 345.10625,55.7425 C344.83625,55.65875 344.439375,55.70125 343.818125,55.996875" id="Fill-24" fill="#D0DC53"></path>
            <path d="M269.491875,171.281875 C268.94,173.86625 268.074375,175.75 266.91,176.945 C265.69,178.174375 264.03375,178.783125 261.94125,178.783125 C258.825,178.783125 257.275,177.273125 257.275,174.244375 C257.275,173.38875 257.391875,172.4025 257.6175,171.281875 C258.173125,168.72 259.04625,166.83125 260.23375,165.623125 C261.4325,164.406875 263.078125,163.805 265.17375,163.805 C268.291875,163.805 269.849375,165.311875 269.849375,168.34 C269.849375,169.195625 269.733125,170.17625 269.491875,171.281875 Z M266.3275,157.966875 C251.39,157.966875 242.99875,162.40625 241.156875,171.281875 C240.95125,172.24625 240.85,173.159375 240.85,174.0175 C240.85,181.086875 247.490625,184.625625 260.785625,184.625625 C275.719375,184.625625 284.118125,180.17625 285.97375,171.281875 C286.165,170.341875 286.265,169.43 286.265,168.574375 C286.265,161.504375 279.61875,157.966875 266.3275,157.966875 L266.3275,157.966875 Z" id="Fill-25" fill="#133369"></path>
            <polyline id="Fill-26" fill="#133369" points="28.95 160.7025 57.458125 160.7025 59.0575 153.204375 9.366875 153.204375 11.46875 155.52375 11.484375 155.52375 5.139375 184.151875 23.76625 184.151875 26.47875 171.94 53.015 171.94 54.51 164.888125 28.034375 164.888125 28.95 160.7025"></polyline>
            <path d="M101.496875,161.355 C100.681875,160.3775 99.51375,159.49375 98.094375,159.001875 C95.64625,158.156875 93.458125,157.9875 88.829375,157.9875 L60.126875,157.9875 L61.90625,159.94875 L61.92625,159.941875 L56.553125,184.151875 L72.3325,184.151875 L76.869375,163.695625 L82.925,163.695625 C85.85125,163.695625 87.315,164.545 87.315,166.230625 C87.315,166.425 87.296875,166.63375 87.258125,166.849375 C87.044375,167.963125 86.485625,168.7575 85.596875,169.2425 C84.7025,169.723125 83.30125,169.96375 81.385,169.96375 L75.766875,169.96375 L85.793125,184.151875 L100.32125,184.151875 L93.004375,173.8125 C96.015625,173.5125 98.286875,172.8125 99.819375,171.716875 C101.47,170.525 102.4475,168.746875 102.74625,166.385625 C102.80625,165.965625 102.83625,165.559375 102.83625,165.1775 C102.83625,163.8275 102.403125,162.4475 101.496875,161.355" id="Fill-27" fill="#133369"></path>
            <path d="M222.973125,171.0675 C222.06875,175.95875 219.176875,178.4075 214.29875,178.4075 L208.860625,178.4075 L212.11125,163.71 L217.6225,163.71 C219.475625,163.71 220.878125,164.254375 221.833125,165.339375 C222.696875,166.305 223.134375,167.60875 223.134375,169.264375 C223.134375,169.840625 223.081875,170.443125 222.973125,171.0675 Z M233.50625,160.28125 C230.629375,158.736875 226.724375,157.966875 221.79625,157.966875 L195.42125,157.966875 L197.169375,159.9 L191.796875,184.151875 L216.39125,184.151875 C223.118125,184.151875 228.2025,183.1875 231.664375,181.26 C235.495,179.14 237.766875,175.64 238.47375,170.745 C238.584375,170.033125 238.639375,169.351875 238.639375,168.70125 C238.639375,164.90125 236.929375,162.09875 233.50625,160.28125 L233.50625,160.28125 Z" id="Fill-28" fill="#133369"></path>
            <polyline id="Fill-29" fill="#133369" points="191.5625 164.304375 192.94875 157.966875 150.895 157.966875 152.6725 159.928125 147.30375 184.145625 147.30375 184.151875 187.161875 184.145625 187.16375 184.145625 188.698125 177.280625 164.608125 177.280625 165.378125 173.8125 187.2875 173.80875 188.613125 167.849375 166.695625 167.849375 167.47125 164.311875 191.5625 164.304375"></polyline>
            <polyline id="Fill-30" fill="#133369" points="147.083125 164.304375 148.465 157.966875 106.370625 157.966875 108.14875 159.928125 108.188125 159.92125 102.821875 184.145625 102.82375 184.145625 102.821875 184.151875 142.68 184.145625 142.68375 184.145625 144.214375 177.280625 120.126875 177.280625 120.895625 173.8125 140.969375 173.8125 140.969375 173.80875 142.8075 173.80875 144.13125 167.849375 122.2125 167.849375 122.988125 164.311875 147.083125 164.304375"></polyline>
            <polyline id="Fill-31" fill="#133369" points="321.855 157.97625 314.72 169.765625 312.969375 158.005625 289.834375 158.005625 291.606875 159.96 286.243125 184.17375 296.200625 184.17375 300.469375 164.33625 304.278125 184.17375 315.34 184.17375 327.384375 164.268125 323.016875 184.17375 338.789375 184.17375 344.61875 157.97625 321.855 157.97625"></polyline>
            <path d="M375.465625,160.7025 L392.74625,160.7025 L394.34375,153.204375 L360.995625,153.204375 C354.66875,153.204375 349.313125,154.17 347.871875,159.093125 C346.566875,163.5475 349.34125,166.3225 352.245625,168.09375 C354.261875,169.3225 360.80625,172.14375 360.948125,172.2125 C363.8775,173.635625 364.34125,174.559375 363.78375,175.656875 C363.25375,176.694375 361.041875,176.655625 360.000625,176.655625 L344.160625,176.655625 L342.565,184.151875 L375.143125,184.151875 C381.464375,184.151875 387.41,183.18375 388.851875,178.263125 C389.1875,177.119375 389.685625,175.0125 388.66875,172.948125 C387.705625,170.9975 385.580625,169.74875 384.426875,169.103125 C382.808125,168.19 380.833125,167.313125 378.383125,166.23 C375.59625,164.9975 373.72125,164.149375 372.971875,163.674375 C372.126875,163.139375 371.914375,162.475625 372.15375,161.809375 C372.595625,160.575 374.156875,160.7025 375.465625,160.7025" id="Fill-32" fill="#133369"></path>
            <path d="M295.725,10.733125 C300.444375,8.725 305.340625,7.77375 310.164375,7.77375 C318.378125,7.77375 326.35875,10.54875 332.7975,15.5625 C333.100625,15.834375 333.290625,16.19625 333.100625,16.625625 C332.97,16.988125 332.519375,17.23625 332.185,17.371875 C327.596875,18.91625 321.633125,18.445625 317.850625,18.3275 L317.435625,18.3125 C310.428125,18.09 302.0725,18.20875 294.830625,21.339375 C291.385625,22.828125 287.751875,24.6375 284.5875,28.70625 C280.32,34.184375 277.573125,42.045625 279.938125,51.11625 C281.846875,58.41 285.44375,63.468125 289.6775,66.80125 C289.5,66.638125 289.325625,66.466875 289.153125,66.3 C289.083125,66.229375 289.008125,66.16375 288.94125,66.09375 C288.774375,65.926875 288.6175,65.769375 288.4575,65.59875 C288.375625,65.515625 288.2925,65.4275 288.211875,65.340625 C288.05875,65.1775 287.903125,65.009375 287.753125,64.835625 C287.675625,64.744375 287.598125,64.654375 287.5175,64.563125 C287.364375,64.385 287.214375,64.204375 287.064375,64.023125 C287.0375,63.988125 287.013125,63.953125 286.98625,63.918125 C286.680625,63.545 286.38875,63.15125 286.100625,62.750625 C286.0025,62.6175 285.905625,62.48875 285.81125,62.3525 C285.6975,62.185625 285.59,62.021875 285.480625,61.85375 C285.37375,61.696875 285.274375,61.54375 285.175,61.383125 C285.070625,61.22 284.966875,61.059375 284.868125,60.891875 C284.76375,60.714375 284.65875,60.533125 284.5525,60.355 C284.461875,60.198125 284.368125,60.04125 284.28125,59.8775 C284.16,59.654375 284.04,59.424375 283.923125,59.20125 C283.855,59.075625 283.789375,58.946875 283.7225,58.8175 C283.545,58.465 283.3725,58.1025 283.20875,57.73625 C283.153125,57.61125 283.099375,57.4825 283.039375,57.353125 C282.928125,57.09125 282.81625,56.83 282.706875,56.555 C282.646875,56.408125 282.585,56.25125 282.523125,56.10125 C282.4225,55.84375 282.326875,55.581875 282.226875,55.316875 C282.174375,55.16 282.119375,55.006875 282.065625,54.85375 C281.965625,54.56 281.873125,54.264375 281.780625,53.97125 C281.73375,53.835 281.69125,53.69625 281.64875,53.56 C281.5125,53.120625 281.38875,52.678125 281.271875,52.22125 C281.1425,51.74 281.034375,51.2625 280.9375,50.788125 C280.8725,50.464375 280.81875,50.13625 280.765,49.8125 C280.74,49.679375 280.7125,49.543125 280.69,49.401875 C279.665,42.641875 281.3675,36.523125 284.418125,31.9775 C287.64625,27.16875 292.399375,24.1775 296.619375,22.675 C303.851875,20.028125 311.34,19.86125 318.3575,20.084375 L318.78875,20.095 C322.626875,20.220625 329.11375,20.433125 333.883125,18.67875 C334.55375,18.431875 334.97,18.065625 335.213125,17.605 C335.6375,18.0025 336.051875,18.414375 336.459375,18.82625 C336.56125,18.930625 336.65375,19.031875 336.754375,19.13625 C336.949375,19.341875 337.34,19.76375 337.34,19.766875 C340.040625,22.72375 342.3075,26.168125 343.981875,30.051875 C346.7625,36.571875 347.51,43.436875 346.52375,49.961875 C345.93625,49.913125 345.286875,49.930625 344.675625,50.07 C342.824375,50.415 340.809375,51.4675 339.105625,52.549375 C336.1825,54.38625 332.050625,57.62875 332.050625,57.62875 C325.185,62.645625 316.6125,68.949375 305.33875,68.9775 L305.27625,68.9775 C300.936875,68.9775 295.8475,67.544375 291.49625,64.054375 C292.368125,64.884375 293.275625,65.62625 294.21,66.281875 C294.2175,66.289375 294.22625,66.293125 294.231875,66.29625 C294.5325,66.505625 294.831875,66.70375 295.1375,66.89625 C295.155,66.90625 295.170625,66.916875 295.1925,66.930625 C296.438125,67.704375 297.720625,68.339375 299.014375,68.834375 C299.06375,68.855 299.110625,68.869375 299.155,68.88625 C299.42375,68.9875 299.693125,69.081875 299.96125,69.1725 C300.020625,69.193125 300.078125,69.214375 300.139375,69.23125 C300.4075,69.319375 300.679375,69.4025 300.95125,69.47625 C300.9975,69.493125 301.04,69.506875 301.086875,69.5175 C301.71875,69.691875 302.344375,69.83875 302.96625,69.949375 C303.03375,69.96375 303.09875,69.97125 303.16375,69.985 C303.399375,70.02625 303.633125,70.065 303.866875,70.1 C303.960625,70.11 304.058125,70.120625 304.15375,70.138125 C304.35625,70.15875 304.561875,70.186875 304.7625,70.208125 C304.865,70.215 304.9675,70.225625 305.065625,70.23875 C305.273125,70.25 305.473125,70.266875 305.679375,70.27375 C305.765,70.28125 305.856875,70.288125 305.945,70.288125 C306.231875,70.305625 306.515,70.311875 306.794375,70.311875 L306.859375,70.311875 C318.138125,70.2775 327.548125,63.40625 334.413125,58.385625 L336.00625,57.220625 C337.6725,56 338.9925,55.034375 339.4925,54.724375 C341.6225,53.391875 343.535,52.231875 345.02875,52.008125 C345.52625,51.931875 345.885625,51.949375 346.15375,52.02625 C346.138125,52.078125 346.124375,52.126875 346.111875,52.183125 C345.98,52.79625 345.833125,53.410625 345.670625,54.01625 C345.608125,54.2575 345.52625,54.50125 345.455,54.74875 C345.3575,55.08 345.27,55.421875 345.16,55.75625 C345.158125,55.749375 345.15375,55.75625 345.148125,55.749375 C342.008125,65.515625 334.836875,73.920625 324.666875,78.293125 C319.949375,80.30875 315.043125,81.26 310.22375,81.26 C295.958125,81.26 282.408125,72.920625 276.413125,58.988125 C268.4575,40.309375 277.08125,18.755625 295.725,10.733125 Z M310.22375,84.411875 C315.619375,84.411875 320.8925,83.328125 325.904375,81.19375 C346.081875,72.51625 355.489375,49.01875 346.87875,28.82125 C340.545625,14.111875 326.13625,4.621875 310.164375,4.621875 C304.769375,4.621875 299.49375,5.705625 294.49,7.839375 C274.3075,16.51375 264.90625,40.009375 273.51625,60.21875 C279.835,74.91875 294.239375,84.411875 310.22375,84.411875 L310.22375,84.411875 Z" id="Fill-33" fill="#133369"></path>
        </g>
    </g>
</svg>